# xmcd CD database file
#
# Track frame offsets:
#	150
#	15522
#	30447
#	45322
#	65555
#	78337
#	101265
#
# Disc length: 1541 seconds
#
# Revision: 0
# Processed by: cddbd v1.5.1PL2 Copyright (c) Steve Scherf et al.
# Submitted via: CDex 1.51
#
DISCID=42060307
DTITLE=Frogs for Breakfast - First Painting
DYEAR=1997
DGENRE=Blues
TTITLE0=Don't start me talkin'
TTITLE1=It'll com to you
TTITLE2=I love your shoes
TTITLE3=Dark end of the street
TTITLE4=Bare footin'
TTITLE5=Ain't my cross to bear
TTITLE6=Easy money
EXTD=YEAR: 1997
EXTT0=
EXTT1=
EXTT2=
EXTT3=
EXTT4=
EXTT5=
EXTT6=
PLAYORDER=
